<?xml version="1.0" encoding="iso-8859-1"?>
<!-- Generator: Adobe Illustrator 19.0.0, SVG Export Plug-In . SVG Version: 6.00 Build 0)  -->
<svg version="1.1" id="Layer_1" xmlns="http://www.w3.org/2000/svg" xmlns:xlink="http://www.w3.org/1999/xlink" x="0px" y="0px"
	 viewBox="0 0 512 512" style="enable-background:new 0 0 512 512;" xml:space="preserve">
<g>
	<g>
		<path d="M499.677,426.489c4.428,0,8.017-3.589,8.017-8.017V84.977c0-2.1-0.862-4.183-2.347-5.668l-76.96-76.96
			C426.9,0.863,424.817,0,422.716,0H106.324C92.473,0,81.205,11.268,81.205,25.119v9.086H12.261c-6.987,0-10.615,8.738-5.669,13.685
			l62.741,62.741L6.592,173.371c-4.946,4.947-1.319,13.685,5.669,13.685h68.944v299.825c0,13.851,11.268,25.119,25.119,25.119
			h376.251c13.851,0,25.119-11.268,25.119-25.119v-34.205c0-4.427-3.588-8.017-8.017-8.017c-4.428,0-8.017,3.589-8.017,8.017v34.205
			c0,5.01-4.076,9.086-9.086,9.086H106.324c-5.01,0-9.086-4.076-9.086-9.086V187.056h51.841c4.428,0,8.017-3.589,8.017-8.017
			s-3.588-8.017-8.017-8.017H31.615l54.724-54.724c3.131-3.131,3.131-8.207,0-11.337L31.615,50.238h348.88v120.785H183.284
			c-4.428,0-8.017,3.589-8.017,8.017s3.588,8.017,8.017,8.017h205.228c4.428,0,8.017-3.589,8.017-8.017V42.221
			c0-4.427-3.588-8.017-8.017-8.017H97.238v-9.086c0-5.01,4.076-9.086,9.086-9.086H414.7v51.841
			c0,13.851,11.268,25.119,25.119,25.119h51.841v325.478C491.66,422.9,495.248,426.489,499.677,426.489z M439.819,76.96
			c-5.01,0-9.086-4.076-9.086-9.086V27.37l49.589,49.59H439.819z"/>
	</g>
</g>
<g>
	<g>
		<path d="M191.835,128.267h-17.637V92.994h17.637c4.428,0,8.017-3.589,8.017-8.017s-3.588-8.017-8.017-8.017h-25.653
			c-4.428,0-8.017,3.589-8.017,8.017v51.307c0,4.427,3.588,8.017,8.017,8.017h25.653c4.428,0,8.017-3.589,8.017-8.017
			S196.264,128.267,191.835,128.267z"/>
	</g>
</g>
<g>
	<g>
		<path d="M243.142,102.614h-17.637v-9.62h17.637c4.428,0,8.017-3.589,8.017-8.017s-3.588-8.017-8.017-8.017h-25.653
			c-4.428,0-8.017,3.589-8.017,8.017v25.653c0,4.427,3.588,8.017,8.017,8.017h17.637v9.62h-17.637c-4.428,0-8.017,3.589-8.017,8.017
			s3.588,8.017,8.017,8.017h25.653c4.428,0,8.017-3.589,8.017-8.017V110.63C251.159,106.203,247.571,102.614,243.142,102.614z"/>
	</g>
</g>
<g>
	<g>
		<path d="M294.449,102.614h-17.637v-9.62h17.637c4.428,0,8.017-3.589,8.017-8.017s-3.588-8.017-8.017-8.017h-25.653
			c-4.428,0-8.017,3.589-8.017,8.017v25.653c0,4.427,3.588,8.017,8.017,8.017h17.637v9.62h-17.637c-4.428,0-8.017,3.589-8.017,8.017
			s3.588,8.017,8.017,8.017h25.653c4.428,0,8.017-3.589,8.017-8.017V110.63C302.466,106.203,298.878,102.614,294.449,102.614z"/>
	</g>
</g>
<g>
	<g>
		<path d="M226.04,436.109h-25.653c-5.01,0-9.086-4.076-9.086-9.086v-59.858c0-2.126-0.844-4.165-2.347-5.668l-11.435-11.434
			l11.434-11.434c1.503-1.503,2.347-3.542,2.347-5.668v-59.858c0-5.01,4.076-9.086,9.086-9.086h25.653
			c4.428,0,8.017-3.589,8.017-8.017s-3.588-8.017-8.017-8.017h-25.653c-13.851,0-25.119,11.268-25.119,25.119v56.538l-14.755,14.754
			c-3.131,3.131-3.131,8.207,0,11.337l14.755,14.754v56.538c0.001,13.851,11.269,25.119,25.12,25.119h25.653
			c4.428,0,8.017-3.589,8.017-8.017C234.057,439.698,230.468,436.109,226.04,436.109z"/>
	</g>
</g>
<g>
	<g>
		<path d="M428.386,344.394l-14.755-14.754v-56.538c0-13.851-11.268-25.119-25.119-25.119h-25.653c-4.428,0-8.017,3.589-8.017,8.017
			s3.588,8.017,8.017,8.017h25.653c5.01,0,9.086,4.076,9.086,9.086v59.858c0,2.126,0.844,4.165,2.347,5.668l11.434,11.434
			l-11.434,11.434c-1.503,1.503-2.347,3.542-2.347,5.668v59.858c0,5.01-4.076,9.086-9.086,9.086h-25.653
			c-4.428,0-8.017,3.589-8.017,8.017c0,4.427,3.588,8.017,8.017,8.017h25.653c13.851,0,25.119-11.268,25.119-25.119v-56.538
			l14.755-14.754C431.517,352.6,431.517,347.524,428.386,344.394z"/>
	</g>
</g>
<g>
	<g>
		<path d="M295.518,384.802h-1.069c-4.428,0-8.017,3.589-8.017,8.017c0,4.427,3.588,8.017,8.017,8.017h1.069
			c4.428,0,8.017-3.589,8.017-8.017C303.535,388.391,299.947,384.802,295.518,384.802z"/>
	</g>
</g>
<g>
	<g>
		<path d="M355.376,384.802h-1.069c-4.428,0-8.017,3.589-8.017,8.017c0,4.427,3.588,8.017,8.017,8.017h1.069
			c4.427,0,8.017-3.589,8.017-8.017C363.393,388.391,359.805,384.802,355.376,384.802z"/>
	</g>
</g>
<g>
	<g>
		<path d="M235.66,384.802h-1.069c-4.428,0-8.017,3.589-8.017,8.017c0,4.427,3.588,8.017,8.017,8.017h1.069
			c4.428,0,8.017-3.589,8.017-8.017C243.677,388.391,240.088,384.802,235.66,384.802z"/>
	</g>
</g>
<g>
</g>
<g>
</g>
<g>
</g>
<g>
</g>
<g>
</g>
<g>
</g>
<g>
</g>
<g>
</g>
<g>
</g>
<g>
</g>
<g>
</g>
<g>
</g>
<g>
</g>
<g>
</g>
<g>
</g>
</svg>
