<svg width="30" height="30" viewBox="0 0 30 30" fill="none" xmlns="http://www.w3.org/2000/svg">
<path d="M0 30L-1.09278e-06 5C-1.21349e-06 2.23858 2.23858 -9.78513e-08 5 -2.18557e-07L25 -1.09278e-06C27.7614 -1.21349e-06 30 2.23858 30 5L30 30L0 30Z" fill="#222935"/>
<path d="M9.34202 18.6595C9.44973 18.7674 9.57767 18.8531 9.71852 18.9115C9.85936 18.9699 10.0103 19 10.1628 19C10.3153 19 10.4663 18.9699 10.6071 18.9115C10.748 18.8531 10.8759 18.7674 10.9836 18.6595L15.501 14.1421L20.0184 18.6595C20.2361 18.8772 20.5313 18.9995 20.8392 18.9995C21.1471 18.9995 21.4423 18.8772 21.66 18.6595C21.8777 18.4418 22 18.1466 22 17.8387C22 17.5308 21.8777 17.2356 21.66 17.0179L16.316 11.6739C16.2083 11.566 16.0804 11.4803 15.9395 11.4219C15.7987 11.3635 15.6477 11.3334 15.4952 11.3334C15.3427 11.3334 15.1917 11.3635 15.0509 11.4219C14.91 11.4803 14.7821 11.566 14.6744 11.6739L9.33038 17.0179C8.88795 17.4603 8.88795 18.2054 9.34202 18.6595Z" fill="white"/>
</svg>
